# xmcd CD database file
#
# Track frame offsets:
#	150
#	29162
#	59627
#	88630
#	110830
#	138384
#	175805
#	211997
#	240272
#	262649
#
# Disc length: 4136 seconds
#
# Revision: 0
# Processed by: cddbd v1.5.2PL0 Copyright (c) Steve Scherf et al.
# Submitted via: CDex 1.70beta2
#
DISCID=8a10260a
DTITLE=Brecker Brothers and WDR Big Band - Some Skunk Funk
DYEAR=2003
DGENRE=Jazz
TTITLE0=Some Skunk Funk
TTITLE1=Sponge
TTITLE2=Shanghigh
TTITLE3=Wayne Out
TTITLE4=And Then She Wept
TTITLE5=Strap Hangin
TTITLE6=Let It Go
TTITLE7=Freefall
TTITLE8=Levitate
TTITLE9=Song For Barry
EXTD=YEAR: 2003
EXTT0=
EXTT1=
EXTT2=
EXTT3=
EXTT4=
EXTT5=
EXTT6=
EXTT7=
EXTT8=
EXTT9=
PLAYORDER=
